<?xml version="1.0" encoding="UTF-8"?>
<!DOCTYPE svg PUBLIC "-//W3C//DTD SVG 1.1//EN" "http://www.w3.org/Graphics/SVG/1.1/DTD/svg11.dtd">
<svg xmlns="http://www.w3.org/2000/svg" version="1.1" width="500px" height="500px" style="shape-rendering:geometricPrecision; text-rendering:geometricPrecision; image-rendering:optimizeQuality; fill-rule:evenodd; clip-rule:evenodd" xmlns:xlink="http://www.w3.org/1999/xlink">
<g><path style="opacity:0.827" fill="#268293" d="M 314.5,173.5 C 315.627,174.122 316.627,174.955 317.5,176C 294.169,176.5 270.836,176.667 247.5,176.5C 270.019,176.163 292.352,175.163 314.5,173.5 Z"/></g>
<g><path style="opacity:1" fill="#1a7988" d="M 236.5,177.5 C 232.981,178.632 229.314,179.632 225.5,180.5C 225.881,179.069 226.881,178.236 228.5,178C 231.146,177.503 233.813,177.336 236.5,177.5 Z"/></g>
<g><path style="opacity:1" fill="#1f8ea4" d="M 207.5,189.5 C 203.859,192.805 200.192,196.138 196.5,199.5C 196.185,197.774 196.019,196.107 196,194.5C 197.011,195.337 198.178,195.67 199.5,195.5C 199.5,194.5 199.5,193.5 199.5,192.5C 201.745,190.639 204.412,189.639 207.5,189.5 Z"/></g>
<g><path style="opacity:1" fill="#10bcd9" d="M 314.5,173.5 C 292.352,175.163 270.019,176.163 247.5,176.5C 243.881,177.244 240.215,177.577 236.5,177.5C 233.813,177.336 231.146,177.503 228.5,178C 226.881,178.236 225.881,179.069 225.5,180.5C 219.26,182.953 213.26,185.953 207.5,189.5C 204.412,189.639 201.745,190.639 199.5,192.5C 199.5,193.5 199.5,194.5 199.5,195.5C 198.178,195.67 197.011,195.337 196,194.5C 196.019,196.107 196.185,197.774 196.5,199.5C 192.084,204.574 188.084,209.908 184.5,215.5C 179.547,221.067 177.214,227.733 177.5,235.5C 174.549,255.057 178.549,273.39 189.5,290.5C 179.265,291.818 168.931,291.818 158.5,290.5C 149.532,271.038 147.199,250.705 151.5,229.5C 152.75,229.423 153.583,228.756 154,227.5C 155.357,222.195 156.524,216.862 157.5,211.5C 170.517,179.658 193.85,159.825 227.5,152C 260.006,145.543 289.006,152.71 314.5,173.5 Z"/></g>
<g><path style="opacity:1" fill="#5bdce1" d="M 345.5,224.5 C 345.41,227.152 346.076,229.485 347.5,231.5C 350.852,248.873 349.518,265.873 343.5,282.5C 342.603,283.598 341.77,283.598 341,282.5C 338.423,287.136 336.923,292.136 336.5,297.5C 333.364,304.639 329.031,310.972 323.5,316.5C 322.167,316.5 320.833,316.5 319.5,316.5C 319.5,317.5 319.5,318.5 319.5,319.5C 318.167,319.5 316.833,319.5 315.5,319.5C 315.646,321.942 314.813,322.609 313,321.5C 312.506,323.134 312.34,324.801 312.5,326.5C 307.019,331.746 300.686,335.746 293.5,338.5C 286.46,340.618 279.46,342.785 272.5,345C 271.944,345.383 271.611,345.883 271.5,346.5C 261.595,349.025 251.595,349.691 241.5,348.5C 240.158,347.207 238.491,346.374 236.5,346C 232.205,345.088 227.872,344.421 223.5,344C 224.938,343.781 226.271,343.281 227.5,342.5C 225.356,339.018 222.356,336.685 218.5,335.5C 215.415,335.912 212.249,336.912 209,338.5C 208.167,338.333 207.333,338.167 206.5,338C 207.833,337.333 209.167,336.667 210.5,336C 209.975,335.308 209.308,334.808 208.5,334.5C 206.116,336.722 203.449,337.056 200.5,335.5C 200.413,330.912 198.413,327.412 194.5,325C 192.833,324.667 191.167,324.333 189.5,324C 212.67,323.832 235.67,323.332 258.5,322.5C 261.187,322.664 263.854,322.497 266.5,322C 270.741,320.187 275.074,318.687 279.5,317.5C 281.044,317.79 282.377,318.456 283.5,319.5C 284.354,318.478 285.354,317.645 286.5,317C 285.59,314.71 286.59,313.544 289.5,313.5C 290.672,313.919 291.672,314.585 292.5,315.5C 292.833,315 293.167,314.5 293.5,314C 292.728,312.779 291.728,311.779 290.5,311C 292.956,309.289 295.623,307.956 298.5,307C 299.99,304.022 301.657,301.189 303.5,298.5C 319.305,279.618 324.972,257.951 320.5,233.5C 294.79,233.047 269.123,233.547 243.5,235C 232.486,242.541 231.153,251.374 239.5,261.5C 239.5,262.5 239.5,263.5 239.5,264.5C 255.037,266.237 270.704,267.07 286.5,267C 283.961,268.805 282.961,271.305 283.5,274.5C 281.812,278.188 279.145,280.855 275.5,282.5C 274.127,282.343 272.793,282.51 271.5,283C 268.74,284.743 266.407,286.91 264.5,289.5C 236.991,296.663 218.158,286.996 208,260.5C 203.722,237.557 211.889,220.724 232.5,210C 236.057,208.592 239.724,207.592 243.5,207C 275.5,206.333 307.5,206.333 339.5,207C 342.597,212.459 344.597,218.292 345.5,224.5 Z"/></g>
<g><path style="opacity:1" fill="#1d8f9f" d="M 184.5,215.5 C 182.109,222.253 179.776,228.92 177.5,235.5C 177.214,227.733 179.547,221.067 184.5,215.5 Z"/></g>
<g><path style="opacity:1" fill="#1e8ea3" d="M 157.5,211.5 C 156.524,216.862 155.357,222.195 154,227.5C 153.583,228.756 152.75,229.423 151.5,229.5C 152.415,223.419 154.415,217.419 157.5,211.5 Z"/></g>
<g><path style="opacity:0.647" fill="#347672" d="M 345.5,224.5 C 346.924,226.515 347.59,228.848 347.5,231.5C 346.076,229.485 345.41,227.152 345.5,224.5 Z"/></g>
<g><path style="opacity:1" fill="#68c7cb" d="M 239.5,261.5 C 242.037,263.716 245.037,264.883 248.5,265C 261.846,265.167 275.179,265.667 288.5,266.5C 287.309,269.568 285.642,272.235 283.5,274.5C 282.961,271.305 283.961,268.805 286.5,267C 270.704,267.07 255.037,266.237 239.5,264.5C 239.5,263.5 239.5,262.5 239.5,261.5 Z"/></g>
<g><path style="opacity:1" fill="#52a4a8" d="M 275.5,282.5 C 272.642,286.01 268.976,288.343 264.5,289.5C 266.407,286.91 268.74,284.743 271.5,283C 272.793,282.51 274.127,282.343 275.5,282.5 Z"/></g>
<g><path style="opacity:1" fill="#54b2b4" d="M 343.5,282.5 C 341.95,287.93 339.616,292.93 336.5,297.5C 336.923,292.136 338.423,287.136 341,282.5C 341.77,283.598 342.603,283.598 343.5,282.5 Z"/></g>
<g><path style="opacity:0.195" fill="#02323a" d="M 158.5,290.5 C 168.931,291.818 179.265,291.818 189.5,290.5C 190.043,290.56 190.376,290.893 190.5,291.5C 185.167,291.833 179.833,292.167 174.5,292.5C 168.789,292.495 163.456,291.828 158.5,290.5 Z"/></g>
<g><path style="opacity:1" fill="#56bcbe" d="M 303.5,298.5 C 301.657,301.189 299.99,304.022 298.5,307C 295.623,307.956 292.956,309.289 290.5,311C 291.728,311.779 292.728,312.779 293.5,314C 293.167,314.5 292.833,315 292.5,315.5C 291.672,314.585 290.672,313.919 289.5,313.5C 286.59,313.544 285.59,314.71 286.5,317C 285.354,317.645 284.354,318.478 283.5,319.5C 282.377,318.456 281.044,317.79 279.5,317.5C 275.074,318.687 270.741,320.187 266.5,322C 263.854,322.497 261.187,322.664 258.5,322.5C 255.833,322.5 253.167,322.5 250.5,322.5C 271.214,321.311 288.881,313.311 303.5,298.5 Z"/></g>
<g><path style="opacity:1" fill="#57b6b9" d="M 323.5,316.5 C 319.859,319.805 316.192,323.138 312.5,326.5C 312.34,324.801 312.506,323.134 313,321.5C 314.813,322.609 315.646,321.942 315.5,319.5C 316.833,319.5 318.167,319.5 319.5,319.5C 319.5,318.5 319.5,317.5 319.5,316.5C 320.833,316.5 322.167,316.5 323.5,316.5 Z"/></g>
<g><path style="opacity:1" fill="#62d3d7" d="M 250.5,322.5 C 253.167,322.5 255.833,322.5 258.5,322.5C 235.67,323.332 212.67,323.832 189.5,324C 191.167,324.333 192.833,324.667 194.5,325C 198.413,327.412 200.413,330.912 200.5,335.5C 203.449,337.056 206.116,336.722 208.5,334.5C 209.308,334.808 209.975,335.308 210.5,336C 209.167,336.667 207.833,337.333 206.5,338C 207.333,338.167 208.167,338.333 209,338.5C 212.249,336.912 215.415,335.912 218.5,335.5C 222.356,336.685 225.356,339.018 227.5,342.5C 226.271,343.281 224.938,343.781 223.5,344C 227.872,344.421 232.205,345.088 236.5,346C 238.491,346.374 240.158,347.207 241.5,348.5C 218.508,346.832 198.508,338.332 181.5,323C 204.498,322.5 227.498,322.333 250.5,322.5 Z"/></g>
<g><path style="opacity:1" fill="#4b9f9f" d="M 293.5,338.5 C 286.755,342.529 279.422,345.195 271.5,346.5C 271.611,345.883 271.944,345.383 272.5,345C 279.46,342.785 286.46,340.618 293.5,338.5 Z"/></g>
</svg>
