<?xml version="1.0" encoding="UTF-8"?>
<!DOCTYPE svg PUBLIC "-//W3C//DTD SVG 1.1//EN" "http://www.w3.org/Graphics/SVG/1.1/DTD/svg11.dtd">
<svg xmlns="http://www.w3.org/2000/svg" version="1.1" width="500px" height="500px" style="shape-rendering:geometricPrecision; text-rendering:geometricPrecision; image-rendering:optimizeQuality; fill-rule:evenodd; clip-rule:evenodd" xmlns:xlink="http://www.w3.org/1999/xlink">
<g><path style="opacity:1" fill="#000000" d="M -0.5,-0.5 C 166.167,-0.5 332.833,-0.5 499.5,-0.5C 499.5,166.167 499.5,332.833 499.5,499.5C 332.833,499.5 166.167,499.5 -0.5,499.5C -0.5,332.833 -0.5,166.167 -0.5,-0.5 Z"/></g>
<g><path style="opacity:1" fill="#0bbedc" d="M 314.5,174.5 C 291.833,175.167 269.167,175.833 246.5,176.5C 208.892,180.269 185.726,200.602 177,237.5C 174.686,256.942 178.852,274.776 189.5,291C 179.172,291.5 168.839,291.666 158.5,291.5C 139.83,240.695 151.83,198.862 194.5,166C 222.596,149.115 252.263,145.781 283.5,156C 295.189,160.166 305.522,166.333 314.5,174.5 Z"/></g>
<g><path style="opacity:1" fill="#0991a8" d="M 314.5,174.5 C 315.289,174.783 315.956,175.283 316.5,176C 293.169,176.5 269.836,176.667 246.5,176.5C 269.167,175.833 291.833,175.167 314.5,174.5 Z"/></g>
<g><path style="opacity:1" fill="#5bdfe4" d="M 238.5,207.5 C 272.168,207.333 305.835,207.5 339.5,208C 354.407,243.737 350.907,277.571 329,309.5C 301.452,342.177 266.619,354.343 224.5,346C 208.424,341.965 194.424,334.298 182.5,323C 207.5,322.667 232.5,322.333 257.5,322C 281.967,318.697 300.467,306.53 313,285.5C 321.894,269.407 324.394,252.407 320.5,234.5C 295.173,233.334 269.84,233.167 244.5,234C 234.589,238.655 231.422,246.155 235,256.5C 237.315,260.817 240.815,263.65 245.5,265C 259.833,265.333 274.167,265.667 288.5,266C 276.492,288.455 258.159,296.122 233.5,289C 213.012,278.862 204.512,262.362 208,239.5C 212.588,223.414 222.754,212.748 238.5,207.5 Z"/></g>
</svg>
